HIERARCHY
ROOT Hips
{
	OFFSET 0.00000 0.00000 0.00000
	CHANNELS 6 Xposition Yposition Zposition Zrotation Yrotation Xrotation 
	JOINT LHipJoint
	{
		OFFSET 0 0 0
		CHANNELS 3 Zrotation Yrotation Xrotation
		JOINT LeftUpLeg
		{
			OFFSET 2.36090 -1.39315 1.24752
			CHANNELS 3 Zrotation Yrotation Xrotation
			JOINT LeftLeg
			{
				OFFSET 2.06810 -5.68207 0.00000
				CHANNELS 3 Zrotation Yrotation Xrotation
				JOINT LeftFoot
				{
					OFFSET 2.46631 -6.77613 0.00000
					CHANNELS 3 Zrotation Yrotation Xrotation
					JOINT LeftToeBase
					{
						OFFSET 0.26031 -0.71520 1.99545
						CHANNELS 3 Zrotation Yrotation Xrotation
						End Site
						{
							OFFSET 0.00000 -0.00000 1.05957
						}
					}
				}
			}
		}
	}
	JOINT RHipJoint
	{
		OFFSET 0 0 0
		CHANNELS 3 Zrotation Yrotation Xrotation
		JOINT RightUpLeg
		{
			OFFSET -2.25243 -1.39315 1.24752
			CHANNELS 3 Zrotation Yrotation Xrotation
			JOINT RightLeg
			{
				OFFSET -2.17343 -5.97145 0.00000
				CHANNELS 3 Zrotation Yrotation Xrotation
				JOINT RightFoot
				{
					OFFSET -2.52372 -6.93386 0.00000
					CHANNELS 3 Zrotation Yrotation Xrotation
					JOINT RightToeBase
					{
						OFFSET -0.22538 -0.61923 2.11447
						CHANNELS 3 Zrotation Yrotation Xrotation
						End Site
						{
							OFFSET -0.00000 -0.00000 1.10506
						}
					}
				}
			}
		}
	}
	JOINT LowerBack
	{
		OFFSET 0 0 0
		CHANNELS 3 Zrotation Yrotation Xrotation
		JOINT Spine
		{
			OFFSET 0.01594 2.13103 0.08007
			CHANNELS 3 Zrotation Yrotation Xrotation
			JOINT Spine1
			{
				OFFSET 0.01393 2.09723 0.18338
				CHANNELS 3 Zrotation Yrotation Xrotation
				JOINT Neck
				{
					OFFSET 0 0 0
					CHANNELS 3 Zrotation Yrotation Xrotation
					JOINT Neck1
					{
						OFFSET 0.05351 1.38915 0.32494
						CHANNELS 3 Zrotation Yrotation Xrotation
						JOINT Head
						{
							OFFSET 0.00711 1.45992 -0.21666
							CHANNELS 3 Zrotation Yrotation Xrotation
							End Site
							{
								OFFSET -0.00433 1.47702 -0.11056
							}
						}
					}
				}
				JOINT LeftShoulder
				{
					OFFSET 0 0 0
					CHANNELS 3 Zrotation Yrotation Xrotation
					JOINT LeftArm
					{
						OFFSET 2.87198 0.92249 0.11132
						CHANNELS 3 Zrotation Yrotation Xrotation
						JOINT LeftForeArm
						{
							OFFSET 5.52731 -0.00000 0.00000
							CHANNELS 3 Zrotation Yrotation Xrotation
							JOINT LeftHand
							{
								OFFSET 3.11059 -0.00000 0.00000
								CHANNELS 3 Zrotation Yrotation Xrotation
								JOINT LeftFingerBase
								{
									OFFSET 0 0 0
									CHANNELS 3 Zrotation Yrotation Xrotation
									JOINT LeftHandIndex1
									{
										OFFSET 0.41963 -0.00000 0.00000
										CHANNELS 3 Zrotation Yrotation Xrotation
										End Site
										{
											OFFSET 0.33831 -0.00000 0.00000
										}
									}
								}
								JOINT LThumb
								{
									OFFSET 0 0 0
									CHANNELS 3 Zrotation Yrotation Xrotation
									End Site
									{
										OFFSET 0.34348 -0.00000 0.34348
									}
								}
							}
						}
					}
				}
				JOINT RightShoulder
				{
					OFFSET 0 0 0
					CHANNELS 3 Zrotation Yrotation Xrotation
					JOINT RightArm
					{
						OFFSET -2.94710 0.68072 0.32187
						CHANNELS 3 Zrotation Yrotation Xrotation
						JOINT RightForeArm
						{
							OFFSET -5.25396 -0.00000 -0.00000
							CHANNELS 3 Zrotation Yrotation Xrotation
							JOINT RightHand
							{
								OFFSET -3.10567 -0.00000 0.00000
								CHANNELS 3 Zrotation Yrotation Xrotation
								JOINT RightFingerBase
								{
									OFFSET 0 0 0
									CHANNELS 3 Zrotation Yrotation Xrotation
									JOINT RightHandIndex1
									{
										OFFSET -0.49868 -0.00000 0.00000
										CHANNELS 3 Zrotation Yrotation Xrotation
										End Site
										{
											OFFSET -0.40204 -0.00000 0.00000
										}
									}
								}
								JOINT RThumb
								{
									OFFSET 0 0 0
									CHANNELS 3 Zrotation Yrotation Xrotation
									End Site
									{
										OFFSET -0.40818 -0.00000 0.40818
									}
								}
							}
						}
					}
				}
			}
		}
	}
}
MOTION
Frames: 13
Frame Time: .0083333
3.7269 11.1417 9.6244 -0.2550 -10.5756 67.6060 0.0000 0.0000 0.0000 0.4213 2.1092 -139.1644 18.5539 19.9498 85.7686 0.2379 -6.7413 -9.2336 0.8363 -5.8339 -16.3032 0.0000 0.0000 0.0000 -5.6939 -2.6928 -143.1553 -19.0735 -19.9794 87.2901 -0.1392 4.0617 -6.7919 -0.8374 5.8376 -16.3140 -4.5482 -0.3246 -1.9047 0.7329 -0.6136 -11.0376 3.3734 0.1461 -10.6559 0.1218 -1.8745 -53.8144 5.7059 -3.4167 -1.2736 1.6447 -0.9465 6.0262 -0.0000 -0.0000 0.0000 -67.3185 -7.4924 21.0762 58.8759 -56.0029 -33.4074 -0.0000 0.0000 -23.0531 39.9590 -23.9143 -18.7601 -7.1250 0.0000 -0.0000 6.3953 0.0944 -6.4249 -0.0000 -0.0000 0.0000 63.0657 7.2630 39.6683 -108.0799 58.7281 -75.5908 0.0000 -0.0000 -14.6195 -31.3592 -12.3144 7.4055 7.1250 -0.0000 -0.0000 -3.8102 -44.2866 -0.0672
3.7319 11.2498 9.6582 -0.2494 -10.6744 67.4715 0.0000 0.0000 0.0000 0.3356 1.7969 -137.9851 18.1982 19.9220 84.7254 0.2497 -6.5531 -9.3622 0.8556 -5.8988 -16.4912 0.0000 0.0000 0.0000 -5.9173 -2.4061 -141.9920 -18.7309 -19.9613 86.2871 -0.1459 3.8326 -6.8961 -0.8488 5.8761 -16.4255 -4.5706 -0.3252 -1.9947 0.7434 -0.6101 -11.0341 3.3960 0.1487 -10.5982 0.1010 -1.9275 -53.6371 5.7017 -3.4656 -1.3353 1.6354 -0.9758 5.9968 -0.0000 0.0000 0.0000 -67.7780 -7.3070 21.4058 56.7446 -55.3781 -31.6469 -0.0000 0.0000 -23.3056 40.0232 -24.0920 -18.9220 -7.1250 0.0000 -0.0000 6.3940 -0.1354 -6.4494 -0.0000 0.0000 0.0000 63.4217 6.9439 39.6618 -106.6074 58.9318 -74.3308 0.0000 -0.0000 -15.4621 -31.4892 -12.5719 7.5944 7.1250 -0.0000 -0.0000 -3.9192 -44.6001 -0.0387
3.7371 11.3604 9.6914 -0.2412 -10.7590 67.3071 0.0000 0.0000 0.0000 0.2653 1.4715 -136.7536 17.8290 19.8866 83.6408 0.2606 -6.3485 -9.4743 0.8742 -5.9610 -16.6712 0.0000 0.0000 0.0000 -6.1328 -2.1156 -140.7781 -18.3784 -19.9368 85.2540 -0.1521 3.5892 -6.9949 -0.8593 5.9114 -16.5275 -4.5781 -0.3287 -2.0657 0.7561 -0.6108 -11.0270 3.4129 0.1481 -10.5474 0.0974 -1.9705 -53.4349 5.6834 -3.5103 -1.4017 1.6186 -1.0056 5.9636 0.0000 -0.0000 0.0000 -68.2302 -7.1012 21.7219 54.6575 -54.7095 -29.9363 -0.0000 0.0000 -23.5622 40.0850 -24.2099 -19.0414 -7.1250 0.0000 -0.0000 6.4043 -0.2942 -6.4776 0.0000 -0.0000 0.0000 63.7803 6.6138 39.6499 -105.0926 59.1216 -73.0320 0.0000 -0.0000 -16.4042 -31.6237 -12.8342 7.7887 7.1250 -0.0000 -0.0000 -4.0326 -44.9204 -0.0079
3.7424 11.4731 9.7241 -0.2299 -10.8272 67.1156 0.0000 0.0000 0.0000 0.2050 1.1333 -135.4807 17.4473 19.8430 82.5177 0.2701 -6.1330 -9.5687 0.8937 -6.0256 -16.8586 0.0000 0.0000 0.0000 -6.3359 -1.8241 -139.5210 -18.0173 -19.9055 84.1943 -0.1575 3.3333 -7.0853 -0.8689 5.9434 -16.6202 -4.5706 -0.3363 -2.1176 0.7735 -0.6171 -11.0204 3.4272 0.1438 -10.5079 0.1129 -2.0018 -53.2037 5.6487 -3.5500 -1.4688 1.5934 -1.0357 5.9278 0.0000 0.0000 0.0000 -68.6777 -6.8698 22.0230 52.6224 -53.9999 -28.2824 -0.0000 0.0000 -23.8297 40.1230 -24.2542 -19.0956 -7.1250 0.0000 -0.0000 6.4167 -0.3589 -6.4976 0.0000 0.0000 0.0000 64.1364 6.2679 39.6390 -103.5424 59.2956 -71.7003 0.0000 -0.0000 -17.4262 -31.7763 -13.0928 7.9878 7.1250 -0.0000 -0.0000 -4.1637 -45.2395 0.0247
3.7471 11.5870 9.7568 -0.2175 -10.8919 66.8953 0.0000 0.0000 0.0000 0.1360 0.7949 -134.1651 17.0563 19.7910 81.3643 0.2784 -5.9153 -9.6477 0.9129 -6.0882 -17.0405 0.0000 0.0000 0.0000 -6.5325 -1.5229 -138.2233 -17.6495 -19.8670 83.1129 -0.1623 3.0678 -7.1688 -0.8783 5.9746 -16.7108 -4.5631 -0.3446 -2.1519 0.7901 -0.6253 -11.0129 3.4410 0.1387 -10.4777 0.1177 -2.0339 -52.9427 5.6306 -3.5853 -1.5447 1.5766 -1.0619 5.8878 -0.0000 0.0000 0.0000 -69.1113 -6.6201 22.3168 50.6318 -53.2472 -26.6795 -0.0000 0.0000 -24.1273 40.1059 -24.2100 -19.0546 -7.1250 0.0000 -0.0000 6.4164 -0.3014 -6.4909 -0.0000 0.0000 0.0000 64.4954 5.9074 39.6188 -101.9330 59.4550 -70.3154 0.0000 -0.0000 -18.4793 -31.9572 -13.3179 8.1775 7.1250 -0.0000 -0.0000 -4.3239 -45.5245 0.0561
3.7513 11.7018 9.7895 -0.2061 -10.9578 66.6431 0.0000 0.0000 0.0000 0.0472 0.4631 -132.8100 16.6586 19.7302 80.1882 0.2852 -5.7023 -9.7106 0.9326 -6.1516 -17.2249 0.0000 0.0000 0.0000 -6.7260 -1.2108 -136.8873 -17.2768 -19.8213 82.0151 -0.1663 2.7941 -7.2446 -0.8875 6.0049 -16.7988 -4.5614 -0.3525 -2.1685 0.8078 -0.6339 -11.0000 3.4594 0.1342 -10.4520 -0.0715 -2.1779 -51.9740 5.8303 -3.6388 -2.3791 1.5900 -1.0966 5.9221 -0.0000 0.0000 0.0000 -69.5308 -6.3621 22.6016 48.6856 -52.4514 -25.1282 -0.0000 0.0000 -24.4709 40.0006 -24.0731 -18.8949 -7.1250 0.0000 -0.0000 6.3850 -0.1057 -6.4368 -0.0000 0.0000 0.0000 64.8466 5.5416 39.5845 -100.2634 59.5982 -68.8764 0.0000 -0.0000 -19.5289 -32.1822 -13.4965 8.3553 7.1250 -0.0000 -0.0000 -4.5292 -45.7630 0.0855
3.7548 11.8165 9.8230 -0.1984 -11.0265 66.3602 0.0000 0.0000 0.0000 -0.0522 0.1453 -131.4180 16.2579 19.6609 78.9992 0.2913 -5.4867 -9.7653 0.9544 -6.2210 -17.4270 0.0000 0.0000 0.0000 -6.9082 -0.8865 -135.5211 -16.9025 -19.7684 80.9099 -0.1695 2.5196 -7.3141 -0.8960 6.0329 -16.8798 -4.5662 -0.3586 -2.1771 0.8260 -0.6403 -10.9796 3.4818 0.1311 -10.4226 -0.0923 -2.2279 -51.6890 5.8403 -3.6853 -2.4422 1.5864 -1.1246 5.8824 -0.0000 -0.0000 0.0000 -69.9331 -6.1027 22.8820 46.7814 -51.6119 -23.6269 -0.0000 0.0000 -24.8793 39.8039 -23.8386 -18.6126 -7.1250 0.0000 -0.0000 6.3207 0.2344 -6.3335 -0.0000 -0.0000 0.0000 65.1910 5.1743 39.5320 -98.5187 59.7240 -67.3705 0.0000 -0.0000 -20.5336 -32.4399 -13.6357 8.5218 7.1250 -0.0000 -0.0000 -4.7688 -45.9615 0.1134
3.7578 11.9313 9.8570 -0.1894 -11.0970 66.0429 0.0000 0.0000 0.0000 -0.1584 -0.1670 -129.9812 15.8525 19.5825 77.7920 0.2965 -5.2617 -9.8105 0.9769 -6.2919 -17.6339 0.0000 0.0000 0.0000 -7.0830 -0.5557 -134.1172 -16.5261 -19.7082 79.7953 -0.1721 2.2418 -7.3784 -0.9048 6.0618 -16.9639 -4.5760 -0.3651 -2.1764 0.8445 -0.6476 -10.9482 3.5074 0.1278 -10.3862 -0.1165 -2.2840 -51.3846 5.8533 -3.7377 -2.5055 1.5833 -1.1553 5.8415 0.0000 0.0000 0.0000 -70.3182 -5.8471 23.1568 44.9228 -50.7306 -22.1789 -0.0000 0.0000 -25.3558 39.5209 -23.5085 -18.2143 -7.1250 0.0000 -0.0000 6.2251 0.7135 -6.1838 0.0000 0.0000 0.0000 65.5285 4.8167 39.4621 -96.6800 59.8307 -65.7818 0.0000 -0.0000 -21.4583 -32.7188 -13.7176 8.6623 7.1250 -0.0000 -0.0000 -5.0324 -46.0976 0.1367
3.7604 12.0468 9.8921 -0.1760 -11.1648 65.6718 0.0000 0.0000 0.0000 -0.2644 -0.4800 -128.4747 15.4422 19.4945 76.5652 0.3014 -5.0202 -9.8525 1.0012 -6.3675 -17.8546 0.0000 0.0000 0.0000 -7.2431 -0.2224 -132.6536 -16.1482 -19.6405 78.6729 -0.1741 1.9655 -7.4418 -0.9137 6.0905 -17.0473 -4.5833 -0.3714 -2.1555 0.8607 -0.6552 -10.8982 3.5291 0.1234 -10.3405 -0.1342 -2.3392 -51.0656 5.8568 -3.7918 -2.5659 1.5754 -1.1883 5.8000 -0.0000 0.0000 0.0000 -70.6826 -5.6006 23.4330 43.1084 -49.8074 -20.7835 -0.0000 0.0000 -25.8995 39.1763 -23.1181 -17.7420 -7.1250 0.0000 -0.0000 6.1037 1.2812 -6.0000 -0.0000 0.0000 0.0000 65.8622 4.4731 39.3685 -94.7371 59.9150 -64.1013 0.0000 -0.0000 -22.2669 -32.9583 -13.7746 8.7760 7.1250 -0.0000 -0.0000 -5.2600 -46.1994 0.1561
3.7627 12.1642 9.9279 -0.1586 -11.2202 65.2383 0.0000 0.0000 0.0000 -0.3750 -0.7986 -126.8837 15.0217 19.3951 75.3020 0.3050 -4.7708 -9.8799 1.0245 -6.4387 -18.0628 0.0000 0.0000 0.0000 -7.3750 0.1151 -131.1108 -15.7657 -19.5646 77.5329 -0.1756 1.6905 -7.5053 -0.9234 6.1221 -17.1392 -4.5781 -0.3788 -2.0991 0.8769 -0.6651 -10.8311 3.5443 0.1164 -10.2961 -0.1510 -2.4000 -50.7333 5.8594 -3.8538 -2.6156 1.5657 -1.2251 5.7615 0.0000 0.0000 0.0000 -71.0268 -5.3559 23.7136 41.3429 -48.8457 -19.4444 -0.0000 0.0000 -26.5076 38.8008 -22.6953 -17.2352 -7.1250 0.0000 -0.0000 5.9678 1.8940 -5.7991 0.0000 0.0000 0.0000 66.1989 4.1384 39.2558 -92.6839 59.9728 -62.3241 0.0000 -0.0000 -22.9305 -33.1491 -13.8158 8.8647 7.1250 -0.0000 -0.0000 -5.4422 -46.2762 0.1719
3.7647 12.2854 9.9644 -0.1329 -11.2640 64.7044 0.0000 0.0000 0.0000 -0.5005 -1.1287 -125.1553 14.5873 19.2826 73.9903 0.3076 -4.5144 -9.8965 1.0463 -6.5049 -18.2567 0.0000 0.0000 0.0000 -7.4762 0.4592 -129.4411 -15.3764 -19.4796 76.3680 -0.1769 1.4184 -7.5740 -0.9346 6.1581 -17.2437 -4.5633 -0.3869 -1.9668 0.8915 -0.6790 -10.7411 3.5533 0.1068 -10.2703 -0.1692 -2.4704 -50.3820 5.8658 -3.9279 -2.6525 1.5556 -1.2671 5.7266 0.0000 -0.0000 0.0000 -71.3451 -5.1080 24.0074 39.6276 -47.8477 -18.1627 -0.0000 0.0000 -27.1850 38.4081 -22.2507 -16.7102 -7.1250 0.0000 -0.0000 5.8227 2.5342 -5.5888 0.0000 -0.0000 0.0000 66.5388 3.8110 39.1270 -90.5132 59.9990 -60.4444 0.0000 -0.0000 -23.4389 -33.2749 -13.8510 8.9285 7.1250 -0.0000 -0.0000 -5.5621 -46.3361 0.1840
3.7666 12.4118 10.0019 -0.0876 -11.2803 64.0305 0.0000 0.0000 0.0000 -0.6468 -1.4883 -123.2372 14.1335 19.1540 72.6118 0.3090 -4.2602 -9.9012 1.0653 -6.5617 -18.4233 0.0000 0.0000 0.0000 -7.5296 0.7972 -127.5924 -14.9785 -19.3844 75.1719 -0.1784 1.1538 -7.6539 -0.9448 6.1905 -17.3381 -4.5305 -0.3997 -1.7059 0.9087 -0.7038 -10.6242 3.5575 0.0912 -10.2895 -0.1975 -2.5542 -50.0135 5.8839 -4.0155 -2.6656 1.5491 -1.3138 5.6998 -0.0000 0.0000 0.0000 -71.6436 -4.8460 24.3160 37.9689 -46.8194 -16.9429 -0.0000 0.0000 -27.9186 38.0170 -21.8009 -16.1898 -7.1250 0.0000 -0.0000 5.6761 3.1765 -5.3798 -0.0000 0.0000 0.0000 66.8747 3.4882 38.9885 -88.2362 59.9882 -58.4726 0.0000 -0.0000 -23.8029 -33.3391 -13.9069 8.9848 7.1250 -0.0000 -0.0000 -5.6221 -46.4111 0.1964
3.7674 12.5441 10.0410 -0.0259 -11.2973 63.1973 0.0000 0.0000 0.0000 -0.8520 -1.8550 -121.0956 13.6569 19.0066 71.1538 0.3094 -4.0162 -9.8954 1.0826 -6.6133 -18.5746 0.0000 0.0000 0.0000 -7.5563 1.1497 -125.5416 -14.5690 -19.2776 73.9350 -0.1798 0.8926 -7.7434 -0.9540 6.2200 -17.4241 -4.5149 -0.4125 -1.2977 0.9237 -0.7356 -10.4753 3.5714 0.0747 -10.3603 -0.2377 -2.6562 -49.6370 5.9166 -4.1227 -2.6448 1.5465 -1.3672 5.6856 -0.0000 0.0000 0.0000 -71.9245 -4.5661 24.6406 36.3729 -45.7680 -15.7891 -0.0000 0.0000 -28.6927 37.6221 -21.3298 -15.6602 -7.1250 0.0000 -0.0000 5.5278 3.8416 -5.1696 -0.0000 0.0000 0.0000 67.2077 3.1718 38.8443 -85.8602 59.9351 -56.4156 0.0000 -0.0000 -24.0393 -33.3672 -13.9780 9.0386 7.1250 -0.0000 -0.0000 -5.6468 -46.4983 0.2095
